<?xml version="1.0" encoding="UTF-8"?>
<!DOCTYPE svg PUBLIC "-//W3C//DTD SVG 1.1//EN" "http://www.w3.org/Graphics/SVG/1.1/DTD/svg11.dtd">
<svg xmlns="http://www.w3.org/2000/svg" version="1.1" width="128px" height="128px" style="shape-rendering:geometricPrecision; text-rendering:geometricPrecision; image-rendering:optimizeQuality; fill-rule:evenodd; clip-rule:evenodd" xmlns:xlink="http://www.w3.org/1999/xlink">
<g><path style="opacity:0.952" fill="#060606" d="M 70.5,-0.5 C 70.8333,-0.5 71.1667,-0.5 71.5,-0.5C 71.9383,1.12603 72.2716,2.7927 72.5,4.5C 69.0965,14.3529 70.4299,15.0195 76.5,6.5C 76.8333,7 77.1667,7.5 77.5,8C 76.5777,10.5052 76.0777,13.0052 76,15.5C 87.2278,11.2405 96.8945,13.5738 105,22.5C 107.789,31.9741 111.623,40.9741 116.5,49.5C 117.85,53.8964 117.684,58.2297 116,62.5C 112.744,64.5853 109.911,67.252 107.5,70.5C 98.7422,77.4233 88.7422,81.4233 77.5,82.5C 76.8333,82.5 76.5,82.1667 76.5,81.5C 89.8714,80.1033 101.038,74.4367 110,64.5C 111.333,61.8333 112.667,59.1667 114,56.5C 114.72,54.8876 114.554,53.3876 113.5,52C 112.551,51.3828 111.718,51.5494 111,52.5C 106.593,64.5706 98.0926,72.0706 85.5,75C 80.4038,76.3596 75.4038,77.5263 70.5,78.5C 60.7937,78.7548 51.127,78.4215 41.5,77.5C 40.209,77.7373 39.209,77.404 38.5,76.5C 37.7375,75.7321 36.7375,75.2321 35.5,75C 51.3131,74.0587 63.6464,66.892 72.5,53.5C 84.4383,60.2323 94.605,58.2323 103,47.5C 104.562,43.9855 105.395,40.3189 105.5,36.5C 104.694,30.0532 101.694,24.8865 96.5,21C 94.0859,19.1151 91.4192,18.4484 88.5,19C 95.6535,21.0504 100.32,25.5504 102.5,32.5C 102.664,35.1873 102.497,37.854 102,40.5C 101.814,37.9644 101.314,35.631 100.5,33.5C 98.9795,27.1473 94.9795,23.314 88.5,22C 77.2301,21.1024 70.8968,26.2691 69.5,37.5C 70.769,48.1001 76.769,53.4335 87.5,53.5C 82.6933,55.2171 77.6933,54.2171 72.5,50.5C 66.9381,44.4709 65.2714,37.4709 67.5,29.5C 68.6194,26.112 70.6194,23.2787 73.5,21C 72.3094,20.3021 71.3094,19.4687 70.5,18.5C 66.8457,17.3293 63.179,15.9959 59.5,14.5C 57.0017,15.6303 54.6684,15.6303 52.5,14.5C 62.1573,13.6967 68.1573,8.69669 70.5,-0.5 Z"/></g>
<g><path style="opacity:0.637" fill="#000000" d="M 97.5,0.5 C 104.502,0.651628 107.002,3.98496 105,10.5C 103.365,3.96218 100.032,2.62885 95,6.5C 94.0339,3.66027 94.8672,1.66027 97.5,0.5 Z"/></g>
<g><path style="opacity:0.569" fill="#000000" d="M 26.5,11.5 C 28.8568,11.3367 31.1902,11.5034 33.5,12C 34.5536,13.3876 34.7203,14.8876 34,16.5C 29.8775,13.4148 27.2108,14.4148 26,19.5C 23.9915,16.7051 24.1582,14.0384 26.5,11.5 Z"/></g>
<g><path style="opacity:1" fill="#3d3d3d" d="M 58.5,19.5 C 63.9185,18.0938 66.2518,20.0938 65.5,25.5C 62.5181,54.5053 46.8515,66.172 18.5,60.5C 17.2921,57.9558 15.2921,56.6225 12.5,56.5C 12.2153,53.1709 12.8819,50.1709 14.5,47.5C 14.2606,49.4672 14.5939,51.3005 15.5,53C 34.3937,63.3687 48.5603,58.8687 58,39.5C 60.8526,32.7222 61.0193,26.0555 58.5,19.5 Z"/></g>
<g><path style="opacity:1" fill="#313131" d="M 49.5,19.5 C 56.3134,18.5088 63.3134,18.1755 70.5,18.5C 71.3094,19.4687 72.3094,20.3021 73.5,21C 70.6194,23.2787 68.6194,26.112 67.5,29.5C 66.0744,31.6789 65.4078,34.1789 65.5,37C 65.8958,39.5402 66.0625,42.0402 66,44.5C 57.3042,62.2654 43.1375,69.5987 23.5,66.5C 21.3674,64.9095 19.7007,62.9095 18.5,60.5C 46.8515,66.172 62.5181,54.5053 65.5,25.5C 66.2518,20.0938 63.9185,18.0938 58.5,19.5C 55.5,19.5 52.5,19.5 49.5,19.5 Z"/></g>
<g><path style="opacity:1" fill="#f7f7f7" d="M 100.5,33.5 C 101.675,43.9544 97.3419,50.621 87.5,53.5C 76.769,53.4335 70.769,48.1001 69.5,37.5C 70.8968,26.2691 77.2301,21.1024 88.5,22C 94.9795,23.314 98.9795,27.1473 100.5,33.5 Z"/></g>
<g><path style="opacity:1" fill="#282828" d="M 105.5,36.5 C 104.857,34.9236 103.857,33.5903 102.5,32.5C 100.32,25.5504 95.6535,21.0504 88.5,19C 91.4192,18.4484 94.0859,19.1151 96.5,21C 101.694,24.8865 104.694,30.0532 105.5,36.5 Z"/></g>
<g><path style="opacity:1" fill="#0d0d0d" d="M 76.5,30.5 C 82.1581,29.6794 83.8248,31.846 81.5,37C 75.2435,37.9338 73.5769,35.7672 76.5,30.5 Z"/></g>
<g><path style="opacity:1" fill="#494949" d="M 49.5,19.5 C 52.5,19.5 55.5,19.5 58.5,19.5C 61.0193,26.0555 60.8526,32.7222 58,39.5C 48.5603,58.8687 34.3937,63.3687 15.5,53C 14.5939,51.3005 14.2606,49.4672 14.5,47.5C 15.5547,41.2616 18.5547,36.0949 23.5,32C 31.0371,25.3975 39.7037,21.2308 49.5,19.5 Z"/></g>
<g><path style="opacity:1" fill="#5b5b5b" d="M 30.5,29.5 C 27.1346,36.6844 28.1346,43.1844 33.5,49C 34.5,49.5 35.5,50 36.5,50.5C 39.777,49.7463 43.1103,49.2463 46.5,49C 47.9423,48.6232 48.9423,47.7899 49.5,46.5C 52.9891,45.3113 53.3224,46.1446 50.5,49C 43.2622,52.7485 35.5956,54.4151 27.5,54C 22.8878,52.5372 19.2212,49.8705 16.5,46C 18.8351,37.9491 23.5018,32.4491 30.5,29.5 Z"/></g>
<g><path style="opacity:1" fill="#f8f8f8" d="M 52.5,34.5 C 53.1149,38.9912 52.1149,42.9912 49.5,46.5C 36.2512,50.9678 30.4178,46.3011 32,32.5C 36.5988,25.9377 42.4321,24.7711 49.5,29C 51.16,30.4877 52.16,32.321 52.5,34.5 Z"/></g>
<g><path style="opacity:1" fill="#151515" d="M 41.5,38.5 C 45.1378,37.7366 46.6378,39.0699 46,42.5C 41.4155,44.4126 39.9155,43.0793 41.5,38.5 Z"/></g>
<g><path style="opacity:1" fill="#1e1e1e" d="M 52.5,34.5 C 52.16,32.321 51.16,30.4877 49.5,29C 42.4321,24.7711 36.5988,25.9377 32,32.5C 30.4178,46.3011 36.2512,50.9678 49.5,46.5C 48.9423,47.7899 47.9423,48.6232 46.5,49C 43.1103,49.2463 39.777,49.7463 36.5,50.5C 35.5,50 34.5,49.5 33.5,49C 28.1346,43.1844 27.1346,36.6844 30.5,29.5C 38.302,21.5402 46.1353,21.5402 54,29.5C 55.8789,32.8005 55.8789,36.1338 54,39.5C 53.8019,37.6183 53.3019,35.9516 52.5,34.5 Z"/></g>
<g><path style="opacity:1" fill="#242424" d="M 67.5,29.5 C 65.2714,37.4709 66.9381,44.4709 72.5,50.5C 71.8333,50.5 71.5,50.8333 71.5,51.5C 70.5416,51.0472 69.7083,50.3805 69,49.5C 60.0341,64.3994 46.8674,71.566 29.5,71C 27.2528,69.7225 25.2528,68.2225 23.5,66.5C 43.1375,69.5987 57.3042,62.2654 66,44.5C 66.0625,42.0402 65.8958,39.5402 65.5,37C 65.4078,34.1789 66.0744,31.6789 67.5,29.5 Z"/></g>
<g><path style="opacity:1" fill="#4a4a4a" d="M 102.5,32.5 C 103.857,33.5903 104.857,34.9236 105.5,36.5C 105.395,40.3189 104.562,43.9855 103,47.5C 94.605,58.2323 84.4383,60.2323 72.5,53.5C 72.1667,52.8333 71.8333,52.1667 71.5,51.5C 71.5,50.8333 71.8333,50.5 72.5,50.5C 77.6933,54.2171 82.6933,55.2171 87.5,53.5C 97.3419,50.621 101.675,43.9544 100.5,33.5C 101.314,35.631 101.814,37.9644 102,40.5C 102.497,37.854 102.664,35.1873 102.5,32.5 Z"/></g>
<g><path style="opacity:1" fill="#131212" d="M 52.5,14.5 C 54.6684,15.6303 57.0017,15.6303 59.5,14.5C 63.179,15.9959 66.8457,17.3293 70.5,18.5C 63.3134,18.1755 56.3134,18.5088 49.5,19.5C 39.7037,21.2308 31.0371,25.3975 23.5,32C 18.5547,36.0949 15.5547,41.2616 14.5,47.5C 12.8819,50.1709 12.2153,53.1709 12.5,56.5C 15.2921,56.6225 17.2921,57.9558 18.5,60.5C 19.7007,62.9095 21.3674,64.9095 23.5,66.5C 25.2528,68.2225 27.2528,69.7225 29.5,71C 46.8674,71.566 60.0341,64.3994 69,49.5C 69.7083,50.3805 70.5416,51.0472 71.5,51.5C 71.8333,52.1667 72.1667,52.8333 72.5,53.5C 63.6464,66.892 51.3131,74.0587 35.5,75C 36.7375,75.2321 37.7375,75.7321 38.5,76.5C 38.1667,76.5 37.8333,76.5 37.5,76.5C 36.0413,76.5674 34.7079,76.2341 33.5,75.5C 25.6204,71.6236 19.2871,65.9569 14.5,58.5C 12.6163,59.6927 12.1163,61.3594 13,63.5C 16.3635,68.0285 20.1969,72.0285 24.5,75.5C 23.8333,75.5 23.5,75.8333 23.5,76.5C 16.7394,79.5924 12.0727,84.5924 9.5,91.5C -0.502131,63.6574 6.16454,40.8241 29.5,23C 36.7905,19.0159 44.4571,16.1825 52.5,14.5 Z"/></g>
<g><path style="opacity:1" fill="#a7a1a0" d="M 33.5,75.5 C 30.5,75.5 27.5,75.5 24.5,75.5C 20.1969,72.0285 16.3635,68.0285 13,63.5C 12.1163,61.3594 12.6163,59.6927 14.5,58.5C 19.2871,65.9569 25.6204,71.6236 33.5,75.5 Z"/></g>
<g><path style="opacity:1" fill="#222222" d="M 116.5,49.5 C 118.26,53.5465 119.26,57.8799 119.5,62.5C 116.207,73.4328 112.041,84.0994 107,94.5C 100.383,102.284 93.2167,109.618 85.5,116.5C 80.6356,118.2 75.6356,119.033 70.5,119C 90.3655,108.491 103.532,92.6573 110,71.5C 109.292,72.3805 108.458,73.0472 107.5,73.5C 107.5,72.5 107.5,71.5 107.5,70.5C 109.911,67.252 112.744,64.5853 116,62.5C 117.684,58.2297 117.85,53.8964 116.5,49.5 Z"/></g>
<g><path style="opacity:1" fill="#a7a7a7" d="M 76.5,81.5 C 74.4352,81.5172 72.4352,81.8505 70.5,82.5C 71.5738,80.716 73.2404,79.5494 75.5,79C 73.8659,78.5065 72.1992,78.3398 70.5,78.5C 75.4038,77.5263 80.4038,76.3596 85.5,75C 98.0926,72.0706 106.593,64.5706 111,52.5C 111.718,51.5494 112.551,51.3828 113.5,52C 114.554,53.3876 114.72,54.8876 114,56.5C 112.667,59.1667 111.333,61.8333 110,64.5C 101.038,74.4367 89.8714,80.1033 76.5,81.5 Z"/></g>
<g><path style="opacity:1" fill="#c0bfbf" d="M 41.5,78.5 C 41.5,78.1667 41.5,77.8333 41.5,77.5C 51.127,78.4215 60.7937,78.7548 70.5,78.5C 72.1992,78.3398 73.8659,78.5065 75.5,79C 73.2404,79.5494 71.5738,80.716 70.5,82.5C 63.8333,82.5 57.1667,82.5 50.5,82.5C 49.8333,82.1667 49.1667,81.8333 48.5,81.5C 46.2872,80.2271 43.9538,79.2271 41.5,78.5 Z"/></g>
<g><path style="opacity:0.804" fill="#030303" d="M 85.5,116.5 C 86.1667,116.5 86.8333,116.5 87.5,116.5C 95.3726,117.394 103.373,118.394 111.5,119.5C 111.5,120.5 111.5,121.5 111.5,122.5C 80.16,126.485 48.8267,126.485 17.5,122.5C 17.5,121.5 17.5,120.5 17.5,119.5C 25.0996,118.184 32.7662,117.351 40.5,117C 37.0221,115.76 33.6887,114.26 30.5,112.5C 32.168,110.66 33.668,108.66 35,106.5C 36.3919,100.928 38.3919,95.5946 41,90.5C 42.3712,88.9586 43.8712,87.6253 45.5,86.5C 53.9922,87.5917 62.3255,87.5917 70.5,86.5C 84.238,85.922 96.5714,81.5887 107.5,73.5C 108.458,73.0472 109.292,72.3805 110,71.5C 103.532,92.6573 90.3655,108.491 70.5,119C 75.6356,119.033 80.6356,118.2 85.5,116.5 Z"/></g>
<g><path style="opacity:1" fill="#4f4f4f" d="M 107.5,70.5 C 107.5,71.5 107.5,72.5 107.5,73.5C 96.5714,81.5887 84.238,85.922 70.5,86.5C 67.8127,86.6641 65.146,86.4974 62.5,86C 67.6243,84.912 72.6243,83.7454 77.5,82.5C 88.7422,81.4233 98.7422,77.4233 107.5,70.5 Z"/></g>
<g><path style="opacity:1" fill="#f95c36" d="M 37.5,76.5 C 37.8333,76.5 38.1667,76.5 38.5,76.5C 39.209,77.404 40.209,77.7373 41.5,77.5C 41.5,77.8333 41.5,78.1667 41.5,78.5C 39.5,78.5 37.5,78.5 35.5,78.5C 33.2498,80.6365 31.0831,82.9698 29,85.5C 28.6667,85.1667 28.3333,84.8333 28,84.5C 24.0657,86.7059 21.8991,90.0392 21.5,94.5C 21.0357,89.2312 23.0357,84.7312 27.5,81C 30.8153,79.1702 34.1486,77.6702 37.5,76.5 Z"/></g>
<g><path style="opacity:1" fill="#201e1e" d="M 76.5,81.5 C 76.5,82.1667 76.8333,82.5 77.5,82.5C 72.6243,83.7454 67.6243,84.912 62.5,86C 65.146,86.4974 67.8127,86.6641 70.5,86.5C 62.3255,87.5917 53.9922,87.5917 45.5,86.5C 47.1667,85.1667 48.8333,83.8333 50.5,82.5C 57.1667,82.5 63.8333,82.5 70.5,82.5C 72.4352,81.8505 74.4352,81.5172 76.5,81.5 Z"/></g>
<g><path style="opacity:1" fill="#8d0001" d="M 48.5,81.5 C 49.1667,81.8333 49.8333,82.1667 50.5,82.5C 48.8333,83.8333 47.1667,85.1667 45.5,86.5C 43.8712,87.6253 42.3712,88.9586 41,90.5C 38.3919,95.5946 36.3919,100.928 35,106.5C 33.668,108.66 32.168,110.66 30.5,112.5C 27.592,113.569 24.592,113.736 21.5,113C 19.6803,112.8 18.347,111.966 17.5,110.5C 21.9046,111.992 26.2379,111.825 30.5,110C 34.006,103.836 36.8393,97.3361 39,90.5C 42.0623,87.2678 45.229,84.2678 48.5,81.5 Z"/></g>
<g><path style="opacity:1" fill="#f32111" d="M 35.5,78.5 C 37.0908,89.3043 32.4242,95.3043 21.5,96.5C 21.5,95.8333 21.5,95.1667 21.5,94.5C 21.8991,90.0392 24.0657,86.7059 28,84.5C 28.3333,84.8333 28.6667,85.1667 29,85.5C 31.0831,82.9698 33.2498,80.6365 35.5,78.5 Z"/></g>
<g><path style="opacity:1" fill="#e12917" d="M 24.5,75.5 C 27.5,75.5 30.5,75.5 33.5,75.5C 34.7079,76.2341 36.0413,76.5674 37.5,76.5C 34.1486,77.6702 30.8153,79.1702 27.5,81C 23.0357,84.7312 21.0357,89.2312 21.5,94.5C 21.5,95.1667 21.5,95.8333 21.5,96.5C 19.2498,95.9953 17.0831,96.662 15,98.5C 12.9817,97.7772 11.1484,96.7772 9.5,95.5C 9.5,94.1667 9.5,92.8333 9.5,91.5C 12.0727,84.5924 16.7394,79.5924 23.5,76.5C 23.5,75.8333 23.8333,75.5 24.5,75.5 Z"/></g>
<g><path style="opacity:1" fill="#fa8463" d="M 23.5,76.5 C 25.5273,76.3379 27.5273,76.5045 29.5,77C 25.4964,81.1748 20.8297,84.3415 15.5,86.5C 14.479,85.9984 14.3123,85.3317 15,84.5C 17.7291,81.6007 20.5624,78.934 23.5,76.5 Z"/></g>
<g><path style="opacity:1" fill="#3b3b3b" d="M 119.5,62.5 C 121.144,87.8882 110.478,105.888 87.5,116.5C 86.8333,116.5 86.1667,116.5 85.5,116.5C 93.2167,109.618 100.383,102.284 107,94.5C 112.041,84.0994 116.207,73.4328 119.5,62.5 Z"/></g>
<g><path style="opacity:0.967" fill="#d20100" d="M 35.5,78.5 C 37.5,78.5 39.5,78.5 41.5,78.5C 43.9538,79.2271 46.2872,80.2271 48.5,81.5C 45.229,84.2678 42.0623,87.2678 39,90.5C 36.8393,97.3361 34.006,103.836 30.5,110C 26.2379,111.825 21.9046,111.992 17.5,110.5C 11.9618,107.093 9.29511,102.093 9.5,95.5C 11.1484,96.7772 12.9817,97.7772 15,98.5C 17.0831,96.662 19.2498,95.9953 21.5,96.5C 32.4242,95.3043 37.0908,89.3043 35.5,78.5 Z"/></g>
</svg>
